<?xml version="1.0" encoding="UTF-8" standalone="no"?>
<!-- Created with Inkscape (http://www.inkscape.org/) -->

<svg
   width="90.330872mm"
   height="15.497515mm"
   viewBox="0 0 90.330872 15.497515"
   version="1.1"
   id="svg1"
   sodipodi:docname="title.svg"
   inkscape:version="1.4 (86a8ad7, 2024-10-11)"
   xmlns:inkscape="http://www.inkscape.org/namespaces/inkscape"
   xmlns:sodipodi="http://sodipodi.sourceforge.net/DTD/sodipodi-0.dtd"
   xmlns="http://www.w3.org/2000/svg"
   xmlns:svg="http://www.w3.org/2000/svg">
  <sodipodi:namedview
     id="namedview1"
     pagecolor="#ffffff"
     bordercolor="#000000"
     borderopacity="0.25"
     inkscape:showpageshadow="2"
     inkscape:pageopacity="0.0"
     inkscape:pagecheckerboard="0"
     inkscape:deskcolor="#d1d1d1"
     inkscape:document-units="mm"
     inkscape:zoom="5.2019868"
     inkscape:cx="108.80458"
     inkscape:cy="13.840866"
     inkscape:window-width="1920"
     inkscape:window-height="1009"
     inkscape:window-x="-8"
     inkscape:window-y="-8"
     inkscape:window-maximized="1"
     inkscape:current-layer="svg1" />
  <defs
     id="defs1">
    <rect
       x="93.080223"
       y="95.858734"
       width="623.77643"
       height="122.25462"
       id="rect1" />
    <filter
       style="color-interpolation-filters:sRGB"
       id="filter24"
       x="-0.022221671"
       y="-0.17487073"
       width="1.0537024"
       height="1.4226043">
      <feFlood
         result="flood"
         in="SourceGraphic"
         flood-opacity="0.498039"
         flood-color="rgb(0,0,0)"
         id="feFlood23" />
      <feGaussianBlur
         result="blur"
         in="SourceGraphic"
         stdDeviation="3.000000"
         id="feGaussianBlur23" />
      <feOffset
         result="offset"
         in="blur"
         dx="3.000000"
         dy="3.000000"
         id="feOffset23" />
      <feComposite
         result="comp1"
         operator="in"
         in="flood"
         in2="offset"
         id="feComposite23" />
      <feComposite
         result="comp2"
         operator="over"
         in="SourceGraphic"
         in2="comp1"
         id="feComposite24" />
    </filter>
  </defs>
  <g
     id="layer1"
     transform="translate(-22.392663,-23.580071)">
    <g
       id="text1"
       style="font-weight:bold;font-size:48px;font-family:MOBO-Bold;-inkscape-font-specification:'MOBO-Bold Bold';white-space:pre;filter:url(#filter24)"
       transform="matrix(0.26458333,0,0,0.26458333,-1.1027228,-2.5730198)"
       aria-label="もやしのサイト">
      <path
         style="fill:#ffffff"
         d="m 124.90408,127.01138 c 1.872,2.208 2.976,4.41599 2.976,6.864 0,3.21599 -2.976,6.048 -8.928,6.048 -4.08,0 -6.192,-1.68 -6.192,-5.04001 0,-0.43199 0,-1.00799 0.048,-1.68 0.048,-0.528 0.48,-0.91199 1.056,-0.91199 h 0.912 c 2.256,0 4.464,-0.14401 6.384,-0.33601 0.624,-0.048 1.056,-0.528 1.104,-1.15199 l 0.096,-4.032 c 0.048,-0.816 -0.528,-1.344 -1.344,-1.248 -2.016,0.192 -4.224,0.384 -6.096,0.432 -0.816,0 -1.296,-0.528 -1.2,-1.344 l 0.288,-2.688 c 0.096,-0.576 0.576,-1.008 1.2,-1.008 2.544,-0.048 4.416,-0.144 6.336,-0.336 0.576,-0.048 1.008,-0.528 1.056,-1.104 l 0.144,-3.984 c 0.048,-0.912 -0.528,-1.392 -1.44,-1.248 -1.392,0.144 -3.12,0.24 -5.04,0.288 -0.72,0.048 -1.152,-0.432 -1.008,-1.152 v -0.096 c 0.048,-0.48 0.144,-0.912 0.192,-1.2 0.192,-0.96 0.336,-1.92 0.576,-3.12 0.192,-0.816 -0.24,-1.44 -1.104,-1.488 l -4.848,-0.24 c -0.864,-0.048 -1.344,0.432 -1.344,1.296 0,1.104 -0.096,2.16 -0.144,3.12 -0.048,0.48 -0.048,0.96 -0.096,1.488 -0.096,0.768 -0.576,1.2 -1.344,1.104 -2.256,-0.24 -4.368,-0.624 -6.288,-1.104 -0.912002,-0.288 -1.584002,0.144 -1.632002,1.104 l -0.144,3.792 c -0.048,0.576 0.336,1.056 0.912,1.2 1.968002,0.48 4.176002,0.912 6.384002,1.2 0.72,0.096 1.152,0.624 1.056,1.344 l -0.336,2.688 c -0.096,0.672 -0.624,1.104 -1.296,1.056 -1.92,-0.24 -3.888,-0.624 -5.904002,-1.2 -0.912,-0.288 -1.536,0.144 -1.584,1.104 l -0.192,4.08 c -0.048,0.576 0.336,1.05599 0.912,1.2 1.728002,0.38399 3.744002,0.768 6.000002,1.00799 0.72,0.096 1.152,0.62401 1.056,1.34401 -0.096,1.24799 -0.144,2.256 -0.144,3.024 0,7.632 5.088,10.94399 12.768,10.94399 10.416,0 16.608,-5.328 16.608,-12.24 0,-3.648 -1.2,-6.672 -3.792,-10.41599 -0.24,-0.384 -0.72,-0.576 -1.2,-0.48 l -4.752,1.008 c -1.296,0.288 -1.536,1.104 -0.672,2.112 z m 44.304,-17.136 c -1.296,-1.248 -2.976,-2.688 -4.32,-3.744 -0.384,-0.336 -0.96,-0.384 -1.392,-0.048 l -2.976,2.016 c -0.816,0.576 -0.816,1.344 -0.048,2.016 1.248,1.104 2.736,2.544 3.84,3.696 0.432,0.432 1.056,0.48 1.584,0.144 l 3.168,-2.304 c 0.72,-0.48 0.768,-1.2 0.144,-1.776 z m -20.88,3.936 c 0.72,1.056 1.44,2.16 1.92,3.024 0.384,0.672 0.768,1.392 1.104,2.112 0.336,0.672 0.144,1.296 -0.576,1.584 -0.672,0.336 -1.44,0.624 -2.16,0.912 -0.576,0.24 -1.968,0.768 -3.552,1.2 -0.816,0.24 -1.152,0.912 -0.768,1.728 l 2.016,4.46399 c 0.336,0.67201 0.96,0.912 1.632,0.57601 1.488,-0.768 3.408,-1.728 5.52,-2.832 0.624,-0.288 1.248,-0.096 1.536,0.576 l 0.432,1.10399 c 2.016,4.84801 4.272,12.048 5.712,17.71201 0.192,0.72 0.768,1.10399 1.488,0.91199 l 5.136,-1.296 c 0.72,-0.144 1.056,-0.768 0.816,-1.488 -1.68,-5.424 -5.088,-14.63999 -6.864,-18.81599 l -0.528,-1.248 c -0.288,-0.624 -0.048,-1.248 0.576,-1.536 4.224,-1.872 8.352,-3.36 11.376,-3.36 2.832,0 4.752,1.584 4.752,3.648 0,3.264 -2.688,4.608 -5.232,4.608 -1.248,0 -2.88,-0.336 -4.512,-0.912 -1.008,-0.336 -1.632,0.096 -1.68,1.152 l -0.096,4.22399 c 0,0.48001 0.288,0.96 0.768,1.10401 1.728,0.52799 4.224,1.008 6.288,1.008 6.816,0 11.76,-4.03201 11.76,-10.944 0,-5.424 -4.464,-10.08 -11.856,-10.08 -4.272,0 -9.024,1.728 -14.112,3.936 -0.624,0.24 -1.2,0.048 -1.536,-0.48 v -0.096 c -0.432,-0.912 -0.864,-1.872 -1.344,-2.736 -0.384,-0.624 -0.96,-1.824 -1.44,-2.736 -0.288,-0.624 -0.912,-0.912 -1.536,-0.624 l -4.512,1.728 c -0.912,0.336 -1.104,1.104 -0.528,1.872 z m 51.216,-4.224 c 0.288,1.728 0.384,3.6 0.384,5.472 0,3.408 -0.384,14.83199 -0.384,20.49599 0,7.92001 4.896,11.472 12.816,11.472 9.936,0 16.512,-5.52 19.584,-9.84 0.288,-0.43199 0.24,-1.00799 -0.096,-1.392 l -3.36,-4.12799 c -0.624,-0.768 -1.392,-0.72 -1.968,0.048 -3.216,4.41601 -7.728,7.824 -14.112,7.824 -3.072,0 -5.568,-1.392 -5.568,-5.71199 0,-4.94401 0.336,-14.016 0.528,-18.768 0.096,-1.584 0.288,-3.648 0.528,-5.472 0.096,-0.864 -0.384,-1.392 -1.2,-1.392 l -5.904,-0.096 c -0.912,0 -1.392,0.576 -1.248,1.488 z m 64.704,36.67199 c 11.232,-2.16 16.608,-9.024 16.608,-18.28799 0,-10.272 -7.296,-18.192 -18.768,-18.192 -12.096,0 -21.36,9.12 -21.36,19.82399 0,7.68 4.32,13.776 9.888,13.776 5.328,0 9.36,-6.096 12.048,-15.12 1.104,-3.64799 1.872,-7.19999 2.448,-10.46399 0.096,-0.768 0.72,-1.2 1.44,-0.912 4.416,1.536 6.816,5.472 6.816,10.848 0,5.90399 -3.84,9.936 -9.6,11.328 -0.816,0.19199 -1.584,0.38399 -2.544,0.57599 -1.104,0.19201 -1.488,0.91201 -0.864,1.872 l 2.688,4.22401 c 0.24,0.38399 0.768,0.62399 1.2,0.52799 z m -8.688,-19.39199 c -1.584,5.23199 -2.976,7.96799 -4.8,7.96799 -1.536,0 -2.88,-2.064 -2.88,-5.952 0,-4.12799 2.976,-9.74399 8.976,-11.90399 0.624,-0.24 1.008,0.096 0.864,0.768 -0.528,3.168 -1.248,6.384 -2.16,9.12 z"
         id="path1" />
      <path
         style="fill:#ffffff"
         d="m 321.03208,115.01138 v -3.12 c 0,-1.152 0.096,-2.16 0.192,-3.072 0.096,-0.816 -0.384,-1.344 -1.2,-1.344 h -4.896 c -0.864,0 -1.344,0.576 -1.248,1.392 0.048,0.912 0.096,1.91999 0.096,3.024 v 3.024 c 0,0.72 -0.48,1.2 -1.2,1.2 h -7.488 c -0.72,0 -1.2,-0.48 -1.2,-1.2 v -2.448 c 0,-1.2 0.048,-2.256 0.144,-3.168 0.048,-0.816 -0.384,-1.344 -1.248,-1.344 h -4.944 c -0.768,0 -1.248,0.528 -1.152,1.296 0.048,0.912 0.144,2.016 0.144,3.168 v 2.496 c 0,0.72 -0.48,1.2 -1.2,1.2 h -1.776 c -1.488,0 -2.736,-0.096 -3.696,-0.24 -0.816,-0.096 -1.344,0.336 -1.344,1.2 v 4.608 c 0,0.768 0.528,1.248 1.296,1.2 0.96,-0.048 2.112,-0.096 3.744,-0.096 h 1.776 c 0.72,0 1.2,0.48 1.2,1.2 v 3.744 c 0,1.43999 -0.048,2.73599 -0.144,3.744 -0.048,0.768 0.432,1.29599 1.2,1.29599 h 4.896 c 0.768,0 1.248,-0.52799 1.2,-1.29599 -0.048,-1.00801 -0.096,-2.30401 -0.096,-3.744 v -3.744 c 0,-0.72 0.48,-1.2 1.2,-1.2 h 8.064 c 0.384,0 0.624,0.24 0.624,0.624 v 0.672 c 0,9.31199 -3.504,13.67999 -11.136,16.608 -1.104,0.43199 -1.296,1.24799 -0.48,2.064 l 3.6,3.50399 c 0.336,0.33601 0.864,0.43201 1.296,0.24001 10.608,-4.89601 13.776,-12.28801 13.776,-22.608 v -0.576 c 0,-0.288 0.24,-0.528 0.576,-0.528 h 1.68 c 1.728,0 3.024,0 4.08,0.048 0.816,0.048 1.344,-0.432 1.344,-1.248 v -4.416 c 0,-0.816 -0.528,-1.296 -1.392,-1.2 -1.104,0.096 -2.256,0.144 -4.08,0.144 h -1.104 c -0.672,0 -1.104,-0.432 -1.104,-1.104 z m 42.768,6.336 c 3.792,-2.544 7.296,-5.472 10.56,-8.592 0.528,-0.528 0.528,-1.20001 -0.048,-1.728 l -3.984,-3.6 c -0.576,-0.528 -1.296,-0.432 -1.776,0.144 -2.736,3.21599 -6.912,6.816 -11.088,9.408 -4.8,2.976 -11.76,6.096 -19.296,7.872 -0.96,0.192 -1.296,0.912 -0.768,1.776 l 2.544,4.46399 c 0.288,0.43201 0.816,0.672 1.344,0.52801 4.128,-1.15201 8.448,-2.83201 12.336,-4.656 1.056,-0.48 1.728,-0.048 1.728,1.10399 v 11.80801 c 0,1.584 -0.096,3.696 -0.24,5.184 -0.048,0.816 0.432,1.392 1.248,1.392 h 5.76 c 0.96,0 1.44,-0.624 1.344,-1.58401 -0.144,-1.488 -0.192,-3.50399 -0.192,-4.99199 v -17.52 c 0,-0.432 0.24,-0.816 0.528,-1.008 z m 57.648,4.8 c -4.032,-1.824 -11.376,-4.464 -16.944,-6.144 -0.528,-0.144 -0.864,-0.624 -0.864,-1.152 v -5.328 c 0,-1.68 0.144,-3.216 0.288,-4.608 0.096,-0.816 -0.384,-1.344 -1.2,-1.344 h -5.808 c -0.864,0 -1.344,0.576 -1.2,1.44 0.192,1.488 0.288,3.168 0.288,4.512 v 26.01599 c 0,1.488 -0.144,3.696 -0.336,5.47201 -0.096,0.864 0.384,1.39199 1.2,1.39199 h 5.904 c 0.816,0 1.296,-0.52799 1.2,-1.34399 -0.192,-2.01601 -0.336,-4.512 -0.336,-5.52001 v -9.984 c 0,-1.05599 0.624,-1.488 1.584,-1.152 4.128,1.536 8.976,3.408 12.912,5.37601 0.672,0.33599 1.344,0.096 1.632,-0.624 l 2.256,-5.472 c 0.24,-0.624 0.048,-1.248 -0.576,-1.536 z"
         id="path2" />
    </g>
  </g>
</svg>
